PathFileType	4	(X/Y/Z)	C:/Users/beibeiliu/ov580/test_trc/capture2\sequence.14_training_dense_right.trc
DataRate	CameraRate	NumFrames	NumMarkers	Units	OrigDataRate	OrigDataStartFrame	OrigNumFrames
120	120	18	19	mm	120	151	400
Frame#	Time	ThumbCMC			ThumbMCP			ThumbIP			ThumbTip			IndexMCP			IndexPIP			IndexTip			MiddleMCP			MiddlePIP			MiddleTip			RingMCP			RingPIP			RingTip			PinkyMCP			PinkyPIP			PinkyTip			BackHand1			BackHand2			BackHand3	
		X0	Y0	Z0	X1	Y1	Z1	X2	Y2	Z2	X3	Y3	Z3	X4	Y4	Z4	X5	Y5	Z5	X6	Y6	Z6	X7	Y7	Z7	X8	Y8	Z8	X9	Y9	Z9	X10	Y10	Z10	X11	Y11	Z11	X12	Y12	Z12	X13	Y13	Z13	X14	Y14	Z14	X15	Y15	Z15	X16	Y16	Z16	X17	Y17	Z17	X18	Y18	Z18	
150	1.25	104.157	60.7448	-0.538599	99.4882	65.6093	-36.9416	101.724	76.5886	-61.4765	123.124	88.2292	-77.3068	119.215	128.5	-25.6913	116.777	146.068	-42.2467	119.355	167.318	-62.4607	134.88	115.333	-49.8751	122.975	93.8291	-70.6191	120.793	69.4275	-42.4115	150.078	104.713	-52.9986	133.968	82.9037	-71.9981	126.123	63.153	-49.1649	175.463	100.763	-42.0101	183.373	110.848	-58.0528	194.666	128.034	-75.3848	162.326	88.74	-0.460681	162.623	65.2369	18.4937	134.161	83.8279	16.475	
151	1.25833	101.327	63.3068	-1.48995	95.3379	64.0766	-36.4118	102.575	79.4805	-60.81	122.498	87.0832	-74.5276	115.423	128.52	-24.3881	117.29	145.463	-42.5741	119.298	167.65	-61.4416	133.754	115.532	-46.5094	120.764	97.3407	-70.5122	115.701	71.2755	-45.2814	149.376	106.123	-57.4271	133.834	83.3035	-72.0364	127.881	63.5305	-49.1172	178.249	100.148	-41.0651	182.706	114.285	-58.8503	192.798	129.636	-76.1104	159.577	88.2284	0.582313	164.257	61.6642	20.4672	131.47	83.3136	17.3149	
152	1.26667	103.91	61.5196	-0.590265	95.1617	62.9413	-34.6246	98.2399	79.1797	-64.4827	119.454	88.7816	-75.7788	116.957	128.002	-24.9973	114.258	147.398	-42.3917	117.064	165.992	-59.5066	131.224	117.22	-50.8176	117.882	96.7808	-68.7344	119.244	70.3298	-43.2562	148.143	106.201	-52.3363	132.964	88.9213	-70.4938	124.966	65.7084	-47.4302	173.16	102.015	-40.1946	183.279	115.653	-60.0015	190.252	129.881	-71.4032	163.081	88.2281	1.53526	157.688	62.423	21.5004	128.517	81.701	19.0538	
153	1.275	101.329	59.5101	2.09568	93.8232	64.0612	-34.3125	97.1721	79.8789	-62.4335	117.131	88.3768	-76.7146	110.954	130.731	-24.1837	111.609	148.086	-41.1724	115.688	165.595	-57.4047	128.427	117.325	-43.839	118.68	94.616	-68.124	114.07	71.7995	-39.9191	144.073	108.506	-53.5543	131.777	85.883	-68.8219	126.574	64.1645	-44.5031	172.655	104.142	-39.392	179.417	116.773	-57.8861	186.707	134.901	-70.829	159.834	89.794	1.541	159.596	67.9543	21.2307	129.106	81.5649	19.7237	
154	1.28333	102.129	59.9055	1.89362	94.0532	64.967	-33.5723	97.5153	78.1354	-59.6903	117.252	90.1231	-74.9991	112.283	131.84	-25.5771	108.643	149.918	-41.3196	113.538	166.668	-57.6025	128.482	117.658	-45.6245	118.865	98.5245	-68.0715	114.107	72.2006	-39.5878	145.927	108.248	-49.723	135.187	87.0126	-69.7908	123.398	65.6084	-45.4881	172.719	102.828	-38.1639	177.985	115.044	-54.1213	188.397	132.348	-65.3522	155.809	87.7591	3.06835	160.383	65.1092	21.7595	126.196	84.3859	21.2071	
155	1.29167	102.428	59.8196	3.1364	93.1493	65.1715	-32.831	95.5969	79.4581	-59.858	116.741	89.5573	-71.6738	112.641	131.209	-23.6514	110.708	149.36	-42.4082	110.874	165.011	-53.5082	125.023	119.785	-45.8189	118.804	96.133	-68.0186	114.78	72.3023	-39.1653	147.625	107.573	-48.9277	133.08	87.1885	-69.8302	123.776	65.2107	-44.1557	172.084	103.015	-35.9923	178.728	117.765	-55.005	187.046	136.058	-66.2565	159.044	91.5566	1.85945	159.51	65.4239	21.5524	127.719	82.6046	20.6598	
156	1.3	99.3514	61.9134	2.07515	94.2419	62.963	-31.1723	96.5593	76.6987	-57.3985	112.611	89.2236	-73.1593	110.307	131.619	-22.5264	109.338	151.054	-40.6797	111.155	166.119	-53.8622	127.871	118.906	-45.668	115.553	102.45	-67.4206	116.906	72.4517	-39.6551	142.291	111.103	-51.3846	128.765	88.2968	-68.1442	121.639	66.6572	-44.942	171.864	103.624	-36.6462	174.626	118.061	-52.602	187.844	137.077	-66.1003	156.447	91.8485	1.77979	156.239	66.052	22.6375	128.276	85.8186	21.8996	
157	1.30833	97.929	59.884	2.81959	94.0164	67.6882	-34.8493	96.4645	80.2868	-60.4143	117.369	90.5907	-72.737	111.774	128.629	-21.6457	106.422	149.348	-38.8701	109.703	168.894	-55.6537	124.917	120.336	-46.9155	117.468	97.6822	-67.1511	116.547	72.3199	-40.2242	146.421	108.776	-50.4187	130.837	91.4046	-69.9073	123.919	64.3641	-48.2822	172.205	104.009	-36.3925	174.737	117.813	-52.0769	186.371	133.441	-64.4881	156.706	88.5556	5.84816	155.88	67.3855	25.6743	124.215	85.6106	21.4819	
158	1.31667	98.8792	64.5731	-1.07367	92.1724	64.2354	-33.9669	97.9672	78.1743	-60.4681	117.7	90.6348	-76.4864	112.346	131.659	-24.1897	106.224	147.268	-39.2703	111.754	167.37	-56.5127	128.44	119.024	-45.545	117.879	99.5095	-69.1545	117.318	72.0773	-42.5595	144.7	109.504	-50.6002	130.922	91.4023	-69.8038	119.442	65.7744	-45.9216	173.011	103.785	-37.0762	175.146	119.27	-54.3743	189.047	131.987	-66.5377	156.969	92.7538	1.56101	154.51	68.5512	21.5846	123.754	86.8274	19.79	
159	1.325	97.6021	62.1611	0.939841	96.576	65.7222	-34.4403	97.976	75.4042	-58.7592	119.895	88.6477	-76.4081	110.241	131.558	-27.2654	108.37	145.283	-42.8021	108.241	166.524	-59.8115	127.991	117.858	-45.8133	118.458	93.2883	-69.6433	116.82	71.7689	-44.7789	142.986	107.501	-50.6766	129.801	86.5835	-71.2713	122.532	62.9075	-49.5681	169.046	102.474	-37.5348	177.6	116.391	-56.0812	184.383	133.579	-69.0141	158.611	88.6617	2.27746	159.194	68.3384	19.625	129.463	88.6448	17.4642	
160	1.33333	101.513	64.7926	-3.52439	91.6795	62.3319	-37.7072	94.0053	73.3598	-64.2668	117.948	86.1304	-80.5302	108.79	129.69	-30.7595	107.511	143.936	-48.7876	108.744	165.564	-67.59	124.812	116.02	-53.1306	115.356	91.6354	-71.2536	117.042	70.0519	-45.7544	142.278	105.86	-57.6816	129.211	83.7633	-72.3954	122.527	60.5224	-47.4379	171.614	103.098	-42.1052	173.734	113.787	-57.2489	185.541	128.919	-70.8712	156.085	89.5475	1.87399	158.688	70.5926	18.6557	124.337	87.1741	16.799	
161	1.34167	98.5453	61.2751	-3.42116	92.5927	60.9484	-40.4565	96.6907	72.3465	-68.3538	114.094	79.9907	-81.7437	108.51	126.843	-35.6795	107.791	141.153	-56.7641	106.839	159.603	-77.6752	123.824	112.597	-57.4614	121.541	89.3603	-75.9144	114.521	66.7406	-47.3482	143.917	101.474	-59.5294	131.633	77.6393	-74.8607	124.15	57.2782	-52.2384	169.991	102.088	-45.8434	177.452	110.513	-62.0188	187.191	126.556	-75.4683	152.673	93.2447	-2.63506	155.099	69.8544	21.8952	123.227	88.0987	15.4684	
162	1.35	98.2386	62.8736	-6.41712	90.4272	58.4646	-40.9603	94.8451	66.9182	-66.5691	112.827	74.9526	-83.2631	108.82	121.793	-42.5646	107.142	135.838	-64.3896	102.922	149.558	-82.9658	125.955	107.119	-63.3143	118.421	82.4253	-79.9107	115.38	62.1544	-46.1582	141.704	97.5631	-64.3177	131.562	73.4354	-77.8111	124.552	55.2752	-47.8087	172.75	97.5804	-47.4484	175.157	108.576	-66.8342	184.533	124.169	-82.9125	156.001	93.3851	-8.34819	156.634	73.9164	18.223	120.453	90.2978	7.25608	
163	1.35833	95.5001	58.874	-5.63885	91.1767	58.4919	-41.3859	96.5792	65.7521	-67.7643	114.468	72.3989	-83.4622	103.109	119.755	-53.5243	103.36	129.2	-73.3881	104.27	143.943	-97.0595	123.653	102.133	-66.8628	122.949	74.0722	-84.4014	116.436	53.9774	-55.7111	144.327	91.4976	-69.078	136.306	62.8455	-78.7809	129.723	48.9783	-49.9908	170.229	95.6016	-53.4088	173.461	103.63	-71.9135	184.081	120.062	-88.1013	151.886	93.0394	-9.46985	154.026	77.6528	14.7778	120.594	86.7251	6.03679	
164	1.36667	98.0944	58.8501	-5.69269	89.4002	58.3256	-38.6567	98.5518	68.7223	-66.3892	120.871	70.6307	-73.7157	106.207	112.509	-57.6279	99.2015	122.815	-82.1601	100.538	132.392	-102.019	122.931	94.2513	-73.4738	119.798	67.1275	-88.9139	117.674	42.0083	-61.0256	143.093	83.987	-72.8364	135.955	55.3365	-78.8734	128.757	45.529	-46.6366	170.03	90.7097	-56.0223	177.643	94.8341	-74.63	185.21	112.032	-94.0883	153.161	92.3509	-13.3107	154.088	75.8524	15.3712	119.906	86.0294	2.65536	
165	1.375	98.1092	57.271	-3.47744	89.3038	55.3756	-38.3319	100.168	64.8348	-68.0755	128.001	65.5065	-70.1841	101.421	104.362	-61.7408	98.0145	113.716	-88.4019	97.4389	120.694	-109.343	127.608	87.3426	-74.3964	122.524	56.8133	-90.839	119.571	32.852	-64.4276	145.209	76.5993	-74.8834	134.013	50.554	-80.8215	130.05	39.9098	-46.7333	166.06	86.8025	-62.982	172.322	88.9301	-78.1579	185.762	102.157	-97.519	149.557	89.7204	-14.1671	153.524	77.9043	9.96497	119.097	86.4721	-1.60114	
166	1.38333	97.4083	57.8431	-7.76337	90.9524	51.9111	-38.2179	97.2894	54.7224	-64.2913	124.462	57.8485	-70.0443	104.802	97.4472	-67.4831	99.544	102.986	-93.7177	96.8913	108.871	-116.121	122.384	78.8485	-79.927	117.678	48.8893	-91.726	113.805	25.9497	-61.7954	143.278	69.7236	-75.8132	136.324	38.4397	-78.5139	128.188	33.6485	-47.0218	164.83	77.6578	-60.4541	174.874	79.2753	-81.0258	180.563	89.3116	-100.537	147.808	86.5205	-21.7654	151.721	77.6159	6.30246	118.352	87.1098	-4.3404	
167	1.39167	93.7499	54.7226	-5.49196	88.7441	46.5119	-36.102	99.2985	49.9573	-67.8712	124.112	48.8057	-70.8458	98.9869	91.433	-70.59	96.5769	93.6092	-92.8232	98.2618	98.6256	-122.191	120.395	71.4721	-80.4804	118.484	41.8988	-91.7386	115.884	17.5769	-60.111	142.865	61.5808	-76.5116	132.053	30.2975	-77.6856	127.837	27.4704	-45.208	167.68	69.8622	-63.4566	171.534	70.1252	-82.9436	183.118	77.2847	-103.378	148.88	82.4648	-24.6431	152.453	77.4962	6.72427	119.811	86.2029	-7.53438	
